<svg xmlns="http://www.w3.org/2000/svg" width="24" height="24" viewBox="0 -960 960 960"><path d="M607.5-372.5Q660-425 660-500t-52.5-127.5T480-680t-127.5 52.5T300-500t52.5 127.5T480-320t127.5-52.5m-189-65.82q-25.5-25.33-25.5-61.5 0-36.18 25.32-61.68 25.33-25.5 61.5-25.5 36.18 0 61.68 25.32 25.5 25.33 25.5 61.5 0 36.18-25.32 61.68-25.33 25.5-61.5 25.5-36.18 0-61.68-25.32m-224 177.82Q67-352 9-500q58-148 185.5-239.5T480-831t285.5 91.5T951-500q-58 148-185.5 239.5T480-169t-285.5-91.5m491-79.5Q779-400 829-500q-50-100-143.59-160t-205.5-60-205.41 60T131-500q50 100 143.59 160t205.5 60 205.41-60"/></svg>